PathFileType	4	(X/Y/Z)	C:/Users/opensim2020/Desktop/walking_exp_matlab/subject06_walking17_straight_04.trc	
DataRate	CameraRate	NumFrames	NumMarkers	Units	OrigDataRate	OrigDataStartFrame	OrigNumFrames	
100.00	100.00	5	45	mm	100.00	4405	318	
Frame#	Time	LFHD			RFHD			LBHD			RBHD			C7			T10			CLAV			STRN			RBAK			LSHO			LUPA			LELB			LFRM			LWRA			LWRB			LFIN			RSHO			RUPA			RELB			RFRM			RWRA			RWRB			RFIN			LASI			RASI			LPSI			RPSI			LTHI			LKNE			LTIB			LANK			LHEE			LTOE			RTHI			RKNE			RTIB			RANK			RHEE			RTOE			*39			*40			*41			*42			*43			*44			
		X1	Y1	Z1	X2	Y2	Z2	X3	Y3	Z3	X4	Y4	Z4	X5	Y5	Z5	X6	Y6	Z6	X7	Y7	Z7	X8	Y8	Z8	X9	Y9	Z9	X10	Y10	Z10	X11	Y11	Z11	X12	Y12	Z12	X13	Y13	Z13	X14	Y14	Z14	X15	Y15	Z15	X16	Y16	Z16	X17	Y17	Z17	X18	Y18	Z18	X19	Y19	Z19	X20	Y20	Z20	X21	Y21	Z21	X22	Y22	Z22	X23	Y23	Z23	X24	Y24	Z24	X25	Y25	Z25	X26	Y26	Z26	X27	Y27	Z27	X28	Y28	Z28	X29	Y29	Z29	X30	Y30	Z30	X31	Y31	Z31	X32	Y32	Z32	X33	Y33	Z33	X34	Y34	Z34	X35	Y35	Z35	X36	Y36	Z36	X37	Y37	Z37	X38	Y38	Z38	X39	Y39	Z39	X40	Y40	Z40	X41	Y41	Z41	X42	Y42	Z42	X43	Y43	Z43	X44	Y44	Z44	X45	Y45	Z45	

120	1.190	1524.37292	631.19067	1668.43030	1394.12769	631.06921	1647.89429	1530.24792	761.66486	1606.90479	1402.36304	760.52032	1592.30847	1479.89502	755.14172	1447.86841	1470.70667	782.24841	1119.06897	1483.86597	642.55859	1373.15430	1495.44080	602.61426	1196.79993	1399.03882	820.40686	1274.92957	1642.18701	703.74329	1403.94519	1713.70703	677.85095	1202.73303	1725.76294	655.82019	1091.73413	1733.97168	568.78229	967.95911	1677.20544	466.76025	900.47766	1716.70642	512.98914	863.70801	1707.98010	436.62943	814.30475	1321.10254	683.24915	1403.41992	1233.67249	719.79358	1204.90466	1223.22144	712.43323	1082.79285	1207.60437	695.03180	963.50745	1243.03955	634.44708	825.48145	1199.61743	686.15692	826.28564	1200.61133	648.51563	750.40887	1590.35596	612.67285	953.84412	1370.20313	592.00269	971.88885	1547.97363	765.31262	985.98828	1381.16711	745.46106	995.70361	1631.58057	717.54419	641.88550	1610.96667	740.01050	478.72168	1595.58521	915.37897	290.28476	1551.57642	1020.19177	154.35912	1504.18213	1057.56604	166.40642	1549.00903	926.30902	41.52759	1304.27283	605.11761	640.96027	1334.67358	579.79877	520.43304	1336.55249	575.86841	253.91458	1386.50244	557.46204	70.97390	1434.78955	591.23773	46.68261	1383.18335	405.73077	42.78323	1463.96875	734.15582	1696.82324															 
121	1.200	1522.79163	624.16510	1669.53430	1392.60693	623.74268	1648.65918	1528.22986	754.34326	1607.68689	1400.65454	753.09003	1592.85168	1478.61938	747.55646	1448.67041	1469.40100	774.47064	1119.98108	1482.74524	634.91296	1374.12610	1494.23584	594.81396	1197.74548	1397.70056	812.51581	1275.95227	1640.82751	696.20276	1404.98718	1712.33875	670.92426	1203.79285	1724.09363	650.29169	1092.42700	1732.97327	564.67920	967.60864	1676.61633	463.25357	898.54498	1716.48499	510.03845	862.81091	1707.78247	434.24475	812.19287	1320.01123	675.42316	1404.47925	1232.50464	711.24670	1205.93872	1222.09106	703.70892	1083.88684	1206.46887	686.07947	964.57813	1241.85803	625.22998	826.58026	1198.28833	677.12292	827.43933	1199.36108	639.75543	751.47260	1588.55566	604.88165	954.73865	1368.40747	583.86914	972.75891	1546.45471	757.62646	986.62109	1379.72107	737.61426	996.55133	1630.83154	706.36987	641.66003	1610.41345	726.07147	478.08456	1595.04065	904.85254	293.77371	1551.58508	1012.85773	160.44795	1503.93127	1049.56165	174.01300	1549.32068	924.86871	43.78813	1303.18872	599.87012	641.26825	1333.73730	574.87115	520.58282	1336.28088	573.12189	254.14836	1386.59595	556.77661	71.06107	1434.80627	590.92181	46.86073	1383.44666	405.27817	42.39785	1462.02002	727.12335	1697.71484															 
122	1.210	1521.32397	617.16449	1670.58838	1391.14355	616.48761	1649.38635	1526.85071	747.50415	1608.57727	1399.08154	745.76611	1593.37427	1477.34839	740.00409	1449.41431	1468.02771	766.79529	1120.85571	1481.62170	627.34546	1374.98743	1492.94031	587.08313	1198.61365	1396.21521	804.69629	1276.92615	1639.53735	688.68591	1405.89563	1711.08630	664.13190	1204.64563	1722.52234	644.90399	1092.95569	1732.82068	560.81812	967.26685	1676.12122	459.88110	896.49414	1716.13843	507.15115	861.68231	1707.60999	432.06763	809.91351	1318.93787	667.57910	1405.45447	1231.18738	702.84290	1206.92993	1220.88867	695.12366	1084.88965	1205.24377	677.19366	965.62128	1240.66187	616.01337	827.68518	1197.10535	667.78113	828.54559	1197.99072	630.22681	752.60870	1586.81091	597.27856	955.61926	1366.72729	576.07251	973.47955	1544.95251	750.11261	987.14368	1378.28369	729.86664	997.37640	1629.64087	694.69495	641.27808	1609.73267	711.86493	477.56613	1594.75134	893.79816	297.47479	1551.72437	1005.02167	166.86407	1504.01587	1041.01245	181.93906	1549.15796	922.30188	45.97505	1302.19873	593.99261	641.58533	1332.79065	570.13715	520.58594	1335.91931	571.30133	254.34299	1386.61951	556.30615	71.09269	1434.78210	590.68402	46.98227	1383.38782	404.80823	42.04736	1460.23804	720.05817	1698.35706															 
123	1.220	1519.97754	610.22577	1671.47083	1389.75378	609.22272	1650.09106	1525.36572	740.41943	1609.23743	1397.58142	738.44635	1593.87842	1476.12488	732.57526	1450.13257	1466.59412	759.30933	1121.62244	1480.48145	619.79443	1375.77515	1491.65967	579.45380	1199.33081	1394.62537	796.96747	1277.78003	1638.28235	681.17950	1406.64294	1709.95923	657.55975	1205.25879	1721.11267	639.55548	1093.36658	1731.67468	557.11115	966.59088	1675.69812	456.64185	894.31976	1716.05518	504.49844	860.39899	1707.57007	430.03619	807.49188	1317.85840	659.79065	1406.35291	1229.90234	694.34454	1207.82422	1219.59851	686.55444	1085.74683	1203.95764	668.27448	966.54700	1239.34839	606.43188	828.87097	1195.72473	658.84656	829.46204	1196.74878	620.70123	753.68018	1585.26709	589.88239	956.47021	1365.62720	570.41309	973.43396	1543.53442	742.83344	987.53387	1376.89465	722.30896	998.07941	1628.54663	683.12628	641.02722	1608.98669	697.32849	477.16138	1594.24756	882.08698	301.08932	1551.88867	996.49408	173.51567	1504.19226	1031.81494	190.04889	1548.83252	918.83978	48.24826	1301.09155	588.49548	641.86835	1331.68250	565.48785	520.42358	1335.56067	570.07043	254.21335	1386.63184	556.10175	71.01947	1434.80347	590.60199	47.02292	1383.23010	404.50336	41.66689	1458.67822	713.01056	1698.96350															 
124	1.230	1518.66492	603.20367	1672.27234	1388.50159	601.99219	1650.77881	1523.92188	733.26312	1609.77783	1396.00806	731.08667	1594.23779	1474.89258	725.11426	1450.81653	1465.13977	751.86493	1122.28528	1479.35303	612.30957	1376.49683	1490.40430	571.86804	1200.06311	1393.06750	789.36810	1278.51001	1637.14453	673.79523	1407.24146	1708.81189	651.14197	1205.69128	1719.87378	634.15582	1093.65601	1730.99353	553.34619	965.87378	1675.43079	453.53247	892.14563	1715.23975	501.55844	858.53162	1707.57861	428.24576	804.88806	1316.75525	652.01874	1407.12573	1228.51196	686.12610	1208.60107	1218.17407	678.12793	1086.54895	1202.64880	659.30524	967.41473	1238.26013	597.26855	829.89063	1194.65723	649.08832	830.38434	1195.49585	611.00146	754.81415	1583.91821	582.62122	957.29218	1364.09607	561.14880	974.61841	1542.16162	735.67682	987.84888	1375.49744	714.95795	998.71826	1627.46899	671.55554	640.87054	1608.06909	682.57977	476.89334	1593.83655	869.99396	304.78909	1552.45325	987.39111	180.33372	1504.47876	1021.96936	198.03323	1549.48718	915.13770	51.98187	1300.20032	582.77386	642.17358	1330.20105	561.58716	520.34589	1335.04028	569.23395	254.11592	1386.58020	556.02899	70.93985	1434.74463	590.59839	47.04357	1383.06458	404.20718	41.37761	1457.23584	705.99109	1699.51245															 
